<svg width="18" height="20" viewBox="0 0 18 20" fill="none" xmlns="http://www.w3.org/2000/svg">
<g clip-path="url(#clip0_1919_457)">
<path d="M9.8226 1.71564C9.8226 1.4297 9.8295 1.15782 9.8226 0.886728C9.80648 0.360166 9.46426 -0.00233245 8.99619 1.12989e-05C8.52812 0.00235505 8.21504 0.341418 8.18282 0.859386C8.16517 1.1422 8.24344 1.49689 8.10608 1.68673C7.98101 1.85782 7.61653 1.84298 7.36101 1.9211C6.24363 2.25666 5.25466 2.93402 4.52825 3.86131C3.80184 4.78859 3.37314 5.92091 3.3003 7.1047C3.25196 7.93439 3.26578 8.76954 3.27422 9.6047C3.29186 11.3867 2.67032 12.8758 1.36049 14.068C0.842546 14.5367 0.694456 15.1328 0.913912 15.7227C1.14411 16.332 1.63367 16.6602 2.35726 16.6602C6.79396 16.6633 11.2306 16.6633 15.6673 16.6602C16.3625 16.6602 16.8628 16.325 17.0877 15.7399C17.3179 15.1375 17.1644 14.5461 16.6326 14.0547C15.3558 12.8828 14.7358 11.4211 14.7304 9.66407C14.7304 8.53517 14.7934 7.37579 14.5708 6.28439C14.0797 3.86798 12.5305 2.40079 10.1855 1.80001C10.072 1.77032 9.95918 1.74689 9.8226 1.71564Z" fill="white"  />
<path d="M17.9845 7.72092C17.8417 5.09436 16.8734 2.83446 15.0794 0.94123C14.84 0.688105 14.5599 0.556074 14.2169 0.652949C14.0665 0.690878 13.9303 0.772774 13.825 0.888547C13.7197 1.00432 13.6501 1.14891 13.6245 1.30451C13.5478 1.66545 13.7296 1.92404 13.9606 2.16857C15.1651 3.42536 15.9603 5.02928 16.238 6.76232C16.3022 7.19918 16.3406 7.63955 16.3531 8.08108C16.3823 8.70061 16.6969 9.07639 17.2064 9.06311C17.7159 9.04983 18.0129 8.66545 17.9991 8.03264C17.9967 7.92873 17.9898 7.82482 17.9845 7.72092Z" fill="white"  />
<path d="M0.000757217 7.7832C0.000757217 7.96679 0.000757217 8.08398 0.000757217 8.20117C0.0145693 8.70507 0.342991 9.06054 0.801853 9.06054C1.26072 9.06054 1.61215 8.7246 1.62443 8.22226C1.63746 7.19312 1.81899 6.1734 2.16156 5.20507C2.5658 4.0915 3.18817 3.07322 3.99087 2.2121C4.1353 2.06647 4.25393 1.89652 4.34154 1.70976C4.48349 1.36913 4.32543 0.964448 4.01389 0.756635C3.8656 0.650367 3.68513 0.601007 3.50449 0.617311C3.32386 0.633614 3.15472 0.714526 3.0271 0.845697C1.18669 2.67989 0.104336 5.16084 0.0015254 7.78085L0.000757217 7.7832Z" fill="white"  />
<path d="M6.01651 17.5186C6.1624 18.2493 6.5621 18.902 7.14233 19.357C7.72256 19.812 8.44443 20.0388 9.1756 19.9959C10.5307 19.9311 11.8198 18.7951 11.9648 17.5186H6.01651Z" fill="white"  />
</g>
<defs>
<clipPath id="clip0_1919_457">
<rect width="18" height="20" fill="white" transform="matrix(-1 0 0 1 18 0)"/>
</clipPath>
</defs>
</svg>
