<svg width="20" height="20" viewBox="0 0 20 20" fill="none" xmlns="http://www.w3.org/2000/svg">
<g clip-path="url(#clip0_1919_464)">
<path d="M2.09517 18.2443C2.15408 18.0266 2.18732 17.8888 2.22862 17.7534C2.52892 16.7698 1.93677 15.7624 0.930428 15.5473C0.238542 15.3994 0.0694235 15.2698 0.0187348 14.5898C-0.0242881 14.0127 0.012868 13.4247 0.0687195 12.8467C0.110256 12.4164 0.391156 12.1731 0.836404 12.0883C1.98073 11.8704 2.55779 10.9566 2.26468 9.84145C2.15509 9.42463 2.25045 9.07807 2.59964 8.8469C3.10746 8.51081 3.62867 8.18978 4.16809 7.90802C4.59214 7.68645 4.85192 7.76967 5.17585 8.11865C5.91936 8.91951 6.92844 8.92646 7.66781 8.13575C8.01426 7.76522 8.26864 7.67927 8.70568 7.91356C9.27608 8.21929 9.82419 8.57022 10.3628 8.93021C10.7236 9.17145 10.8202 9.52144 10.708 9.95708C10.4446 10.9801 10.9804 11.8669 12.0182 12.1191C12.4987 12.2359 12.8019 12.4981 12.8199 12.9869C12.8428 13.6057 12.8291 14.2278 12.7921 14.8461C12.7676 15.2564 12.4942 15.4842 12.0984 15.585C10.8732 15.8969 10.3871 16.7015 10.6989 17.9109C10.7872 18.2536 10.7158 18.5638 10.4483 18.7531C9.88849 19.149 9.30549 19.5168 8.70771 19.8531C8.39098 20.0312 8.08349 19.9109 7.83442 19.6381C6.97577 18.6977 5.98906 18.711 5.17616 19.6734C4.91505 19.9827 4.59324 20.1001 4.24155 19.9036C3.63125 19.5626 3.03088 19.199 2.45711 18.8007C2.27798 18.6762 2.19804 18.4096 2.09517 18.2443ZM8.57864 13.8958C8.57669 12.7044 7.61039 11.7348 6.42281 11.7327C5.24773 11.7306 4.26087 12.7259 4.26978 13.904C4.2787 15.0771 5.23616 16.0284 6.41475 16.0352C7.62025 16.0423 8.5806 15.0928 8.57864 13.8958Z" fill="white"  />
<path d="M20 4.90808C19.9707 5.13979 19.9384 5.3712 19.9129 5.6033C19.8706 5.98788 19.662 6.19867 19.2825 6.294C18.3576 6.52642 17.9606 7.19182 18.192 8.11314C18.2759 8.44705 18.1981 8.71718 17.9274 8.90392C17.5219 9.18365 17.1036 9.4473 16.6755 9.69119C16.3786 9.86037 16.111 9.78215 15.8729 9.52592C15.1974 8.79876 14.4096 8.81266 13.7699 9.55949C13.5448 9.82235 13.2809 9.92478 12.9766 9.7542C12.5018 9.48798 12.0335 9.20668 11.5839 8.90025C11.3127 8.71538 11.2482 8.43831 11.3486 8.10502C11.6288 7.17558 11.1892 6.44148 10.2408 6.24396C9.87671 6.16807 9.62366 5.97102 9.6077 5.60572C9.58518 5.08998 9.60997 4.57011 9.64752 4.05444C9.67232 3.71374 9.91223 3.54284 10.2354 3.46462C11.2331 3.22322 11.6166 2.61598 11.3972 1.62689C11.328 1.31469 11.395 1.04035 11.6593 0.867573C12.0931 0.584018 12.543 0.323338 12.9974 0.0735878C13.2754 -0.0791197 13.519 0.0203432 13.7345 0.238709C14.415 0.928781 15.1085 0.929172 15.7964 0.234649C16.0288 4.46542e-05 16.285 -0.0737327 16.5709 0.085767C17.0126 0.33216 17.4493 0.589717 17.8727 0.86609C18.1966 1.07751 18.3112 1.36676 18.207 1.77445C18.0152 2.52542 18.392 3.26093 19.1215 3.43471C19.7682 3.58883 19.9495 3.98496 19.9712 4.55465C19.9757 4.67152 19.9718 4.78863 19.9718 4.90566C19.9811 4.90659 19.9905 4.90737 20 4.90808ZM14.771 3.18902C13.8073 3.18325 13.0296 3.94803 13.0248 4.9062C13.02 5.85992 13.7965 6.64009 14.7539 6.64368C15.7198 6.64727 16.4956 5.88295 16.4981 4.92549C16.5006 3.96552 15.734 3.1948 14.771 3.18902Z" fill="white"  />
<path d="M14.5393 11.325C15.3757 11.6945 15.8525 11.3619 16.1411 10.5986C16.1738 10.5121 16.3544 10.4412 16.4708 10.4341C16.78 10.4154 17.1003 10.3945 17.3989 10.4568C17.559 10.4902 17.7546 10.6676 17.8115 10.8245C18.0327 11.4343 18.3293 11.6316 18.9592 11.5091C19.0224 11.4968 19.094 11.4701 19.15 11.4875C19.5994 11.6266 19.6765 12.0605 19.8545 12.4078C19.9801 12.6526 20.0618 12.8995 19.8302 13.1617C19.3728 13.6795 19.3977 14.0017 19.8238 14.5743C19.9202 14.7039 19.9624 14.9462 19.9113 15.0967C19.8218 15.3604 19.6507 15.5997 19.4953 15.8373C19.3177 16.109 19.0815 16.1808 18.7532 16.077C18.2494 15.9178 17.7972 16.1427 17.6329 16.637C17.5189 16.9802 17.3106 17.1163 16.9702 17.1102C16.7883 17.1069 16.6058 17.1076 16.4241 17.116C16.0592 17.1329 15.8572 16.9951 15.7764 16.6088C15.668 16.0911 15.2164 15.8441 14.7057 16.0024C14.3841 16.1022 14.178 16.0208 14.0274 15.7382C13.9298 15.5552 13.8276 15.3746 13.7328 15.1902C13.5568 14.8483 13.5344 14.5596 13.8736 14.2604C14.2475 13.9306 14.2279 13.3748 13.8471 13.0098C13.5608 12.7353 13.5699 12.4722 13.7481 12.177C13.8817 11.9557 14.0285 11.7389 14.1963 11.543C14.2819 11.4433 14.4267 11.3939 14.5393 11.325ZM16.793 12.6344C16.1542 12.6291 15.6485 13.1216 15.643 13.7543C15.6376 14.38 16.1462 14.9003 16.7701 14.9073C17.3906 14.9142 17.9169 14.3995 17.9248 13.7779C17.9327 13.1529 17.4248 12.6396 16.793 12.6344Z" fill="white"  />
</g>
<defs>
<clipPath id="clip0_1919_464">
<rect width="20" height="20" fill="white"/>
</clipPath>
</defs>
</svg>
