<svg width="13" height="12" viewBox="0 0 13 12" fill="none" xmlns="http://www.w3.org/2000/svg">
<g clip-path="url(#clip0_250_28)">
<path d="M10.9603 10.28C10.9207 10.1555 10.8886 10.0284 10.8413 9.90655C10.4532 8.90738 11.0337 7.88448 12.1138 7.67135C12.7748 7.54052 12.9618 7.37487 12.9911 6.70542C13.0101 6.10181 12.99 5.49763 12.9308 4.89648C12.8949 4.47972 12.6405 4.2687 12.2095 4.19326C11.0136 3.98225 10.4402 3.06169 10.8065 1.93169C10.9315 1.54764 10.8571 1.2174 10.5065 1.00269C9.96558 0.670653 9.40691 0.366712 8.83282 0.0921528C8.44036 -0.0951246 8.13542 0.00827256 7.83809 0.328491C7.08144 1.14354 5.96278 1.14302 5.2045 0.328491C4.90825 0.0119654 4.61853 -0.0624157 4.20596 0.0868787C3.56012 0.320617 2.95914 0.657626 2.42794 1.08393C2.07788 1.36353 1.99798 1.62835 2.13007 2.04089C2.46164 3.07909 1.91264 4.00968 0.818434 4.2381C0.391732 4.32726 0.166149 4.55885 0.0895052 4.97666C-0.0364094 5.67085 -0.0286665 6.38167 0.112338 7.07312C0.194961 7.48038 0.485772 7.66186 0.889645 7.7373C1.63325 7.87551 2.10561 8.32128 2.24476 9.03715C2.29912 9.31675 2.24911 9.63328 2.17301 9.91393C2.04527 10.3887 2.08604 10.6852 2.49915 10.9548C2.99251 11.2787 3.50448 11.5752 4.03256 11.8426C4.45654 12.0573 4.78812 11.9571 5.09361 11.6068C5.8546 10.7316 7.06785 10.7501 7.80874 11.648C8.09955 12.0009 8.40286 12.0832 8.84152 11.9244C9.48591 11.6873 10.0862 11.35 10.619 10.9258C10.722 10.8497 10.8062 10.7523 10.8652 10.6405C10.9243 10.5288 10.9568 10.4056 10.9603 10.28ZM6.51395 3.89257C6.80012 3.8916 7.08368 3.94546 7.34835 4.05107C7.61303 4.15668 7.85361 4.31196 8.05632 4.508C8.25903 4.70404 8.41987 4.937 8.52961 5.19349C8.63935 5.45 8.69584 5.725 8.69584 6.00274C8.69584 6.2802 8.63946 6.55494 8.52992 6.81124C8.42038 7.06753 8.25983 7.30034 8.05747 7.49634C7.85511 7.69234 7.61491 7.84769 7.35061 7.95349C7.08631 8.05929 6.80311 8.11346 6.51721 8.1129C5.93964 8.11053 5.38669 7.88562 4.97997 7.48762C4.57325 7.08963 4.34606 6.55114 4.34838 5.9906C4.35195 5.43469 4.58141 4.90262 4.9869 4.50997C5.39239 4.11732 5.94115 3.89583 6.51395 3.89362V3.89257Z" fill="#F2F7FE"/>
</g>
<defs>
<clipPath id="clip0_250_28">
<rect width="13" height="12" fill="white" transform="matrix(-1 0 0 1 13 0)"/>
</clipPath>
</defs>
</svg>
