<svg width="22" height="23" viewBox="0 0 22 23" fill="none" xmlns="http://www.w3.org/2000/svg">
<path d="M16.2752 15.2633C16.5147 15.5195 16.7568 15.7811 17.0016 16.0382C18.5328 17.6473 20.0693 19.2501 21.5943 20.8646C22.3064 21.6206 22.0394 22.7164 21.0966 22.96C20.5625 23.0993 20.1566 22.8557 19.796 22.4745C18.1456 20.733 16.4918 18.9951 14.8348 17.2607C14.7284 17.1355 14.6297 17.0037 14.5393 16.8661C12.1731 18.4509 9.676 18.9552 7.00534 18.2945C4.74151 17.7354 2.94593 16.4409 1.61594 14.51C-1.04047 10.6554 -0.360344 5.49736 3.21834 2.24054C6.48812 -0.733113 11.744 -0.739405 15.1411 2.17762C18.7295 5.25825 19.7221 10.9341 16.2752 15.2633ZM16.0028 9.28635C16.0038 8.38517 15.829 7.49261 15.4884 6.65963C15.1478 5.82666 14.648 5.06959 14.0177 4.43165C13.3873 3.7937 12.6387 3.28738 11.8145 2.94158C10.9904 2.59578 10.1069 2.41729 9.21441 2.41629C8.32196 2.41528 7.43805 2.59179 6.61315 2.93573C5.78825 3.27967 5.03851 3.78431 4.40675 4.42084C3.77498 5.05737 3.27356 5.81331 2.93112 6.64551C2.58867 7.47772 2.41191 8.36988 2.41091 9.27107C2.40201 13.0349 5.46703 16.1389 9.20418 16.1488C12.9413 16.1587 15.9966 13.0672 16.0028 9.28635Z" fill="black"/>
</svg>
