<svg width="13" height="14" viewBox="0 0 13 14" fill="none" xmlns="http://www.w3.org/2000/svg">
<g>
<path d="M1.32136 7.03062C1.32136 8.56304 1.32136 10.0951 1.32136 11.6268C1.32136 12.3545 1.64254 12.6733 2.37108 12.6733C4.35742 12.6733 6.34376 12.6733 8.3301 12.6733C8.87527 12.6733 9.21512 13.1166 9.01857 13.5729C8.88845 13.8764 8.63426 13.982 8.31034 13.9814C6.47058 13.9771 4.63193 13.9814 2.79108 13.9771C2.44465 13.9771 2.09163 13.9836 1.75289 13.9227C0.795405 13.7519 0.0855257 12.9398 0.0119576 11.9754C0.00482035 11.8851 0.000976562 11.7943 0.000976562 11.7035C0.000976562 8.57591 0.000976562 5.44817 0.000976562 2.32025C0.000976562 1.24492 0.612031 0.41108 1.59312 0.136399C1.7685 0.0851381 1.95 0.057332 2.13281 0.0537216C4.21028 0.0477384 6.28831 0.049916 8.36634 0.0488281C8.64743 0.0488281 8.86319 0.157612 8.99386 0.408905C9.04986 0.508902 9.07647 0.622446 9.07064 0.73666C9.06482 0.850874 9.02681 0.961188 8.96092 1.05509C8.80665 1.29169 8.57277 1.35859 8.29771 1.35805C6.33882 1.3537 4.38066 1.3537 2.42324 1.35805C1.62003 1.35805 1.32136 1.65666 1.32136 2.46167C1.32136 3.98465 1.32136 5.50764 1.32136 7.03062Z" fill="#F2F7FE"/>
<path d="M9.97636 7.66956H9.63488C8.04273 7.66956 6.45058 7.66956 4.85844 7.66956C4.31436 7.66956 3.98001 7.16535 4.22323 6.71933C4.36817 6.45117 4.60754 6.36088 4.91005 6.36197C6.48462 6.36686 8.0592 6.36197 9.63158 6.36197H9.97472C9.87754 6.25699 9.82045 6.19117 9.75896 6.13026C9.18359 5.55914 8.60602 4.98802 8.03175 4.41744C7.72265 4.10795 7.70618 3.7272 7.98014 3.45198C8.2541 3.17675 8.65214 3.18818 8.95575 3.48734C9.97399 4.49142 10.9902 5.49786 12.0044 6.50665C12.3338 6.83301 12.3295 7.20124 11.9956 7.53304C10.9877 8.53567 9.97783 9.53576 8.96617 10.5333C8.65982 10.8357 8.26508 10.8504 7.99057 10.5823C7.71606 10.3141 7.7254 9.92032 8.02956 9.61626C8.60273 9.04242 9.18249 8.47403 9.75676 7.90345C9.8188 7.84253 9.87644 7.77671 9.97636 7.66956Z" fill="#F2F7FE"/>
</g>
</svg>
