<svg width="18" height="18" viewBox="0 0 18 18" fill="none" xmlns="http://www.w3.org/2000/svg">
<g clip-path="url(#clip0_1887_298)">
<path d="M16.4049 2.04935C16.4049 2.6896 16.4049 3.33079 16.4049 3.97291C16.4049 5.22673 15.6575 5.96035 14.3797 5.96386C14.0685 5.96386 13.7567 5.97088 13.4455 5.96386C12.3754 5.93227 11.6072 5.16425 11.5986 4.11612C11.5928 3.42603 11.5986 2.73664 11.5986 2.02197H6.41566C6.41566 2.67416 6.41566 3.31371 6.41566 3.95396C6.41566 5.22884 5.6697 5.96316 4.37398 5.96597C4.06208 5.96597 3.75091 5.97299 3.43973 5.96597C2.38619 5.93297 1.62155 5.17127 1.60934 4.14069C1.60143 3.452 1.60934 2.76261 1.60934 2.07673C0.85763 1.99249 0.106642 2.65099 0.0283089 3.44428C0.0132179 3.59592 0.0153694 3.74826 0.0153694 3.9006C0.0153694 7.96183 0.0383682 12.0238 0.00028038 16.0843C-0.010498 17.3079 0.810204 18.0163 1.97226 18.0079C6.70312 17.9742 11.4347 17.9945 16.1663 17.9938C17.1092 17.9938 17.7624 17.5354 17.955 16.7302C17.9884 16.5699 18.0029 16.4064 17.9981 16.243C17.9981 12.0776 17.9981 7.91082 17.9981 3.74264C17.9974 2.74647 17.3255 2.02689 16.4049 2.04935ZM9.01574 8.29319C11.004 8.29319 12.9923 8.29319 14.9805 8.29319C15.6683 8.29319 15.9018 8.52486 15.9025 9.20583C15.9025 11.2534 15.9025 13.3015 15.9025 15.35C15.9025 16.0246 15.664 16.2626 14.9791 16.2626C11.0026 16.2626 7.02604 16.2626 3.04951 16.2626C2.39626 16.2626 2.15264 16.0274 2.15192 15.3984C2.14809 13.3153 2.14809 11.2326 2.15192 9.15037C2.15192 8.51854 2.39914 8.29038 3.05095 8.29038C5.03873 8.28992 7.02676 8.29015 9.01502 8.29108L9.01574 8.29319Z" fill="#808AAB"/>
<path d="M5.21847 2.38991C5.21847 1.82828 5.2235 1.26666 5.21847 0.705039C5.21272 0.219938 4.98706 0.00722325 4.48904 0.00301108C4.16708 -0.00120109 3.84226 -0.00330717 3.52174 0.00301108C3.09558 0.0128395 2.84118 0.239597 2.83758 0.650986C2.82752 1.81869 2.82752 2.98616 2.83758 4.1534C2.84189 4.54724 3.09486 4.77119 3.50089 4.78523C3.82357 4.79365 4.14769 4.79014 4.46892 4.78523C4.99713 4.78031 5.21272 4.57462 5.21847 4.06916C5.22278 3.51035 5.21847 2.95012 5.21847 2.38991Z" fill="#808AAB"/>
<path d="M15.203 2.40046C15.203 1.83883 15.2073 1.27721 15.203 0.719802C15.1979 0.228382 14.9759 0.0128606 14.4843 0.00584036C14.1501 0.00162819 13.8152 -0.00258398 13.4782 0.00584036C13.075 0.0177748 12.8257 0.248739 12.8221 0.643279C12.8125 1.81052 12.8125 2.97799 12.8221 4.1457C12.8221 4.54234 13.0714 4.77261 13.4746 4.78314C13.8325 4.79297 14.1918 4.79297 14.5526 4.78314C14.9636 4.77261 15.1943 4.55288 15.1994 4.15132C15.2101 3.56723 15.2022 2.98314 15.203 2.40046Z" fill="#808AAB"/>
<path d="M7.85821 10.6348C7.85821 10.8454 7.85821 11.056 7.85821 11.2666C7.86252 11.5755 8.01344 11.7482 8.34115 11.7489C8.78383 11.7489 9.22676 11.7489 9.66993 11.7489C9.99619 11.7489 10.1514 11.5783 10.1543 11.268C10.1543 10.8468 10.1543 10.4256 10.1543 10.0044C10.1543 9.68846 9.9847 9.52278 9.67065 9.51296C9.22796 9.50219 8.78526 9.50219 8.34258 9.51296C8.02925 9.51998 7.85749 9.68425 7.85749 10.0002C7.85701 10.2126 7.85725 10.4242 7.85821 10.6348Z" fill="#808AAB"/>
<path d="M9.01357 15.3174C9.24138 15.3174 9.46919 15.3237 9.69628 15.3174C9.98374 15.3075 10.1447 15.1545 10.1505 14.8765C10.1605 14.4321 10.1584 13.987 10.1505 13.5426C10.1462 13.2471 9.97943 13.0849 9.67904 13.0793C9.23563 13.0709 8.79222 13.073 8.34954 13.0793C8.03117 13.0828 7.86014 13.2464 7.85654 13.5588C7.85223 13.98 7.84864 14.4012 7.85654 14.8224C7.86373 15.1678 8.01177 15.304 8.3639 15.3209H9.01069L9.01357 15.3174Z" fill="#808AAB"/>
<path d="M11.5094 14.1944C11.5094 14.4163 11.5094 14.6388 11.5094 14.8606C11.5094 15.1414 11.6603 15.3057 11.9456 15.3127C12.412 15.324 12.8799 15.3212 13.3456 15.3127C13.633 15.3078 13.7861 15.1337 13.794 14.8648C13.8069 14.4207 13.8069 13.9761 13.794 13.531C13.7847 13.2214 13.5964 13.0705 13.2795 13.0712C12.8605 13.0712 12.4415 13.0648 12.0225 13.0712C11.651 13.0789 11.5195 13.2193 11.5073 13.5935C11.5073 13.6166 11.5073 13.6405 11.5073 13.6637V14.1944H11.5094Z" fill="#808AAB"/>
<path d="M6.50313 14.1945C6.50313 13.9727 6.50313 13.7501 6.50313 13.5283C6.50313 13.2475 6.34431 13.086 6.06332 13.0783C5.59691 13.0657 5.12907 13.0671 4.66267 13.0783C4.37521 13.0846 4.22574 13.2622 4.21855 13.5318C4.20705 13.9755 4.2049 14.4206 4.21855 14.8657C4.22718 15.1549 4.39606 15.3164 4.70148 15.3178C5.14417 15.3178 5.58686 15.322 6.02954 15.3178C6.32922 15.3143 6.49882 15.1668 6.50241 14.8643C6.50529 14.6382 6.50313 14.4164 6.50313 14.1945Z" fill="#808AAB"/>
<path d="M11.5097 10.6334C11.5097 10.8552 11.5097 11.0771 11.5097 11.2996C11.5097 11.5804 11.6534 11.7412 11.9466 11.7461C12.413 11.7531 12.8809 11.7461 13.3465 11.7461C13.6441 11.7461 13.7864 11.5706 13.7943 11.3031C13.8079 10.8594 13.8058 10.4151 13.7943 9.96927C13.7871 9.67582 13.611 9.51787 13.3135 9.51295C12.8708 9.50523 12.4281 9.50312 11.9854 9.51295C11.6728 9.51997 11.4996 9.67793 11.5061 9.99875C11.5125 10.2122 11.509 10.4228 11.5097 10.6334Z" fill="#808AAB"/>
<path d="M5.40967 11.7455C5.63676 11.7455 5.86457 11.7532 6.09095 11.7455C6.34535 11.7342 6.49195 11.5924 6.49627 11.3446C6.50489 10.877 6.50273 10.4095 6.49627 9.94054C6.49627 9.66745 6.32307 9.52915 6.06508 9.51933C5.59939 9.50458 5.13083 9.50599 4.66587 9.51933C4.38272 9.52564 4.22102 9.69062 4.21384 9.96512C4.20234 10.4088 4.2009 10.8539 4.21384 11.299C4.22174 11.5861 4.37841 11.7539 4.6903 11.7525H5.40895L5.40967 11.7455Z" fill="#808AAB"/>
</g>
<defs>
<clipPath id="clip0_1887_298">
<rect width="18" height="18" fill="white" transform="matrix(-1 0 0 1 18 0)"/>
</clipPath>
</defs>
</svg>
