<svg width="18" height="18" viewBox="0 0 18 18" fill="none" xmlns="http://www.w3.org/2000/svg">
<g clip-path="url(#clip0_1732_356)">
<path d="M7.47242 17.9993C5.7162 17.9993 3.95991 17.9994 2.20369 17.9993C1.02602 17.9992 0.0199787 17.0672 0.0138666 15.8888C-0.00468058 12.3098 -0.00461033 8.73076 0.0140071 5.15182C0.0199787 4.00356 1.00523 3.03132 2.17011 3.01618C4.1836 2.98999 6.19772 3.00421 8.21149 3.01069C8.68065 3.01217 9.00635 3.34866 8.99743 3.77852C8.9885 4.20902 8.67229 4.50953 8.1791 4.51221C6.63365 4.52059 5.08813 4.51594 3.5426 4.51636C3.14454 4.5165 2.74634 4.51101 2.34835 4.51826C1.78533 4.52854 1.50572 4.80406 1.50213 5.36953C1.49511 6.48429 1.49989 7.59911 1.49989 8.71386C1.49989 10.9786 1.4996 13.2433 1.50003 15.5081C1.50017 16.2839 1.73692 16.526 2.49609 16.5261C5.83296 16.5264 9.16983 16.5264 12.5067 16.5261C13.2598 16.526 13.4936 16.2918 13.4937 15.5392C13.4941 13.65 13.4922 11.7608 13.4949 9.87149C13.4956 9.34728 13.8103 9.0098 14.2685 9.02515C14.6918 9.0393 14.9811 9.34615 14.9858 9.81678C14.9941 10.6616 14.9887 11.5065 14.9886 12.3514C14.9884 13.5013 14.9983 14.6514 14.9842 15.8012C14.9715 16.8392 14.3087 17.6891 13.3316 17.9488C13.1873 17.9872 13.0319 17.9969 12.8816 17.9972C11.0786 18.0004 9.27549 17.9993 7.47242 17.9993Z" fill="#727272"/>
<path d="M12.926 2.44824C13.8162 3.34021 14.683 4.20888 15.5611 5.08887C15.5121 5.14154 15.4437 5.21942 15.3708 5.29257C13.5249 7.1434 11.6808 8.99606 9.82747 10.8394C9.6954 10.9708 9.50508 11.0788 9.32424 11.1195C8.54871 11.2941 7.76783 11.4455 6.98653 11.5933C6.49861 11.6855 6.33302 11.5028 6.43145 11.012C6.58573 10.2423 6.73221 9.47085 6.89682 8.70329C6.92955 8.55078 6.99651 8.38011 7.10287 8.27273C9.01723 6.34121 10.94 4.41807 12.8616 2.4938C12.8858 2.46965 12.918 2.45373 12.926 2.44824Z" fill="#727272"/>
<path d="M16.4474 4.23065C15.5492 3.33058 14.6829 2.46241 13.7754 1.55298C14.203 1.15248 14.618 0.685513 15.1093 0.322332C15.8289 -0.209695 16.8541 -0.0584519 17.4752 0.594612C18.0883 1.2393 18.1891 2.24421 17.6467 2.94747C17.2862 3.41486 16.8401 3.81586 16.4474 4.23065Z" fill="#727272"/>
</g>
<defs>
<clipPath id="clip0_1732_356">
<rect width="18" height="18" fill="white"/>
</clipPath>
</defs>
</svg>
