<svg width="14" height="18" viewBox="0 0 14 18" fill="none" xmlns="http://www.w3.org/2000/svg">
<g clip-path="url(#clip0_1732_402)">
<path d="M12.9797 4.39648C8.98841 4.39648 5.0292 4.39648 1.07028 4.39648C1.07028 4.83857 1.05219 5.2675 1.07308 5.69482C1.25808 9.47254 1.44996 13.25 1.63973 17.0276C1.671 17.65 2.03652 17.9966 2.68928 17.9974C5.56527 18.0006 8.4414 18.0006 11.3174 17.9975C11.9738 17.9968 12.3418 17.6526 12.3724 17.0335C12.5749 12.9283 12.7775 8.8231 12.9792 4.71778C12.9839 4.61672 12.9797 4.51526 12.9797 4.39648ZM10.3866 11.1877C10.3866 12.3336 10.3876 13.4796 10.3861 14.6255C10.3854 15.1028 10.2889 15.1913 9.78213 15.1944C9.70877 15.1948 9.63542 15.1952 9.5622 15.1943C9.12193 15.1886 9.00159 15.0779 9.00117 14.649C8.99893 12.3454 8.99879 10.0419 9.00117 7.73829C9.00173 7.26359 9.12137 7.17783 9.73921 7.17971C10.2743 7.18132 10.3852 7.27661 10.3859 7.74997C10.3878 8.89585 10.3866 10.0417 10.3866 11.1877ZM3.6262 11.1876C3.6262 10.03 3.62073 8.87236 3.63293 7.71481C3.63448 7.56556 3.70489 7.30345 3.78371 7.28856C4.10687 7.22709 4.45793 7.18857 4.77267 7.25474C4.88936 7.2793 5.00101 7.61442 5.00241 7.80862C5.0184 10.0185 5.01265 12.2285 5.01251 14.4385C5.01251 15.1558 4.96763 15.1991 4.23071 15.1946C3.72466 15.1915 3.62732 15.1022 3.62662 14.6255C3.62508 13.4794 3.6262 12.3335 3.6262 11.1876ZM6.31986 11.1994C6.31986 10.0518 6.31803 8.9043 6.3207 7.75668C6.32182 7.27876 6.42589 7.18334 6.92451 7.17971C7.02241 7.17904 7.12031 7.17958 7.21821 7.18012C7.53337 7.18159 7.692 7.33164 7.692 7.63495C7.69186 10.0004 7.69382 12.3657 7.68723 14.7311C7.68695 14.8502 7.63197 15.0611 7.57054 15.0727C7.24486 15.1335 6.90207 15.1958 6.57849 15.1567C6.29054 15.1219 6.32028 14.8299 6.32014 14.607C6.3193 13.4712 6.31972 12.3352 6.31986 11.1994Z" fill="#008BC6"/>
<path d="M0.00174332 3.27337C4.68903 3.27337 9.32007 3.27337 13.987 3.27337C13.987 2.62205 14.0246 1.98174 13.9719 1.34828C13.9434 1.00644 13.6066 0.922296 13.271 0.923369C12.1088 0.926724 10.9468 0.924577 9.7846 0.924577C9.65276 0.924577 9.52092 0.924577 9.3505 0.924577C9.3505 0.707024 9.34419 0.523157 9.35205 0.339828C9.36215 0.106304 9.26677 -0.00119782 9.0094 1.00627e-05C7.6761 0.00604948 6.34267 0.00604948 5.00924 1.00627e-05C4.75635 -0.00106361 4.6506 0.0967749 4.66126 0.334594C4.66939 0.518326 4.66294 0.702729 4.66294 0.924577C4.26405 0.924577 3.9005 0.924577 3.53695 0.924577C2.60732 0.924577 1.67755 0.921893 0.747916 0.925651C0.216899 0.927798 0.00917721 1.1216 0.00328636 1.62153C-0.00330639 2.15863 0.00174332 2.69574 0.00174332 3.27337Z" fill="#008BC6"/>
</g>
<defs>
<clipPath id="clip0_1732_402">
<rect width="14" height="18" fill="white" transform="matrix(-1 0 0 1 14 0)"/>
</clipPath>
</defs>
</svg>
