<svg width="21" height="19" viewBox="0 0 21 19" fill="none" xmlns="http://www.w3.org/2000/svg">
<g clip-path="url(#clip0_1919_442)">
<path d="M12.4558 18.9971V13.829H8.55191V18.9652C8.47622 18.9816 8.39949 18.9931 8.32222 18.9995C7.22792 18.9995 6.13445 19.0114 5.04097 18.9995C3.92698 18.9844 2.9787 18.1821 2.94015 17.105C2.88027 15.3945 2.90816 13.6793 2.9221 11.968C2.9221 11.7943 3.04843 11.5848 3.18132 11.4549C5.44538 9.24177 7.71492 7.03443 9.98992 4.83294C10.3615 4.47284 10.6363 4.47523 11.0112 4.83852C13.2857 7.04213 15.5552 9.25026 17.8198 11.4629C17.9801 11.6377 18.0724 11.8615 18.0807 12.0955C18.102 13.6753 18.1077 15.2551 18.0864 16.8349C18.0692 18.1343 17.1545 18.9955 15.8256 19.0035C14.7231 19.0027 13.6182 18.9971 12.4558 18.9971Z" fill="white"  />
<path d="M15.0609 3.13532C15.0609 2.72264 15.0551 2.39601 15.0609 2.06937C15.0765 1.27269 15.5768 0.743692 16.2848 0.761219C16.9927 0.778746 17.4636 1.30774 17.4668 2.07494C17.4726 3.11063 17.457 4.14631 17.4791 5.18199C17.4907 5.38415 17.5736 5.57628 17.7138 5.72612C18.6465 6.65983 19.6005 7.57521 20.5479 8.49299C20.8662 8.80051 21.0565 9.15503 20.9835 9.59958C20.951 9.79697 20.8668 9.98294 20.739 10.1396C20.6112 10.2963 20.4441 10.4185 20.2537 10.4944C20.0633 10.5703 19.8559 10.5974 19.6516 10.5731C19.4473 10.5488 19.2529 10.4739 19.087 10.3556C18.947 10.2495 18.8159 10.1328 18.6948 10.0067C16.1913 7.57628 13.6871 5.14508 11.1824 2.71308C10.641 2.18727 10.3547 2.18966 9.80758 2.72025C7.28375 5.17031 4.75829 7.61824 2.23118 10.064C2.01278 10.2788 1.74681 10.4422 1.45352 10.542C0.977742 10.691 0.483912 10.468 0.205005 10.0688C0.0680659 9.87614 -0.00403877 9.64698 -0.00139464 9.41287C0.00124949 9.17876 0.078512 8.95119 0.21977 8.76147C0.326335 8.62383 0.444601 8.49511 0.573325 8.37667C3.08567 5.93353 5.59911 3.4925 8.11364 1.0536C9.56559 -0.354927 11.4375 -0.349352 12.8985 1.06714C13.5001 1.64872 14.0995 2.23056 14.6966 2.81267C14.7918 2.9011 14.8911 2.98395 15.0609 3.13532Z" fill="white"  />
</g>
<defs>
<clipPath id="clip0_1919_442">
<rect width="21" height="19" fill="white"/>
</clipPath>
</defs>
</svg>
