<svg width="20" height="20" viewBox="0 0 20 20" fill="none" xmlns="http://www.w3.org/2000/svg">
<g clip-path="url(#clip0_1919_448)">
<path d="M13.3419 19.9971H18.9651C19.7094 19.9971 19.9976 19.7042 19.9984 18.9521C19.9984 17.9628 19.9984 16.9735 19.9984 15.9843C19.9984 15.3118 19.686 14.9986 19.0245 14.9979C15.2236 14.9979 11.4227 14.9979 7.62177 14.9979C6.98915 14.9979 6.66582 15.3227 6.66191 15.9647C6.65566 16.98 6.65566 17.9954 6.66191 19.0107C6.66191 19.6925 6.98291 19.9971 7.67722 19.9971C9.56725 19.9971 11.4555 19.9971 13.3419 19.9971Z" fill="white"  />
<path d="M13.3163 7.50117C11.4419 7.50117 9.56744 7.50117 7.69303 7.50117C6.97684 7.50117 6.66522 7.80576 6.6621 8.51648C6.6621 9.51851 6.65663 10.5213 6.6621 11.5234C6.6621 12.1864 6.98622 12.502 7.64851 12.502C11.4359 12.502 15.2232 12.502 19.0106 12.502C19.6838 12.502 19.9947 12.1942 19.997 11.528C20.0001 10.5002 20.0001 9.47217 19.997 8.44384C19.997 7.82451 19.676 7.50664 19.0598 7.50664C17.1437 7.49935 15.2292 7.49753 13.3163 7.50117Z" fill="white"  />
<path d="M13.3289 0.00292826H7.70563C6.96758 0.00292826 6.66299 0.305177 6.66064 1.04245C6.66064 2.0187 6.66064 2.99496 6.66064 3.97122C6.66064 4.70693 6.96602 5.00215 7.71266 5.00293H18.9591C19.7066 5.00293 19.9963 4.71161 19.9979 3.96341C19.9979 2.97414 19.9979 1.98486 19.9979 0.995588C19.9979 0.30596 19.6902 0.00371027 18.9904 0.00371027C17.1035 0.00318956 15.2163 0.00292826 13.3289 0.00292826Z" fill="white"  />
<path d="M5.00215 17.4699C5.00215 16.9631 5.00215 16.4546 5.00215 15.9493C4.99746 15.3292 4.68193 15.0027 4.07275 14.9996C3.01995 14.9944 1.96742 14.9944 0.915142 14.9996C0.327044 14.9996 0.00683411 15.3315 0.00449109 15.9282C-0.000194947 16.981 -0.000194947 18.0338 0.00449109 19.0866C0.00449109 19.6747 0.335639 19.9941 0.933108 19.9965C1.98538 20.0012 3.03792 20.0012 4.09071 19.9965C4.67803 19.9965 4.9959 19.6653 5.00137 19.0679C5.00683 18.5352 5.00215 18.0026 5.00215 17.4699Z" fill="white"  />
<path d="M2.50303 7.50078C1.97038 7.50078 1.43695 7.49532 0.904309 7.50078C0.336517 7.50859 0.00771228 7.83271 0.00458826 8.4005C-0.00218046 9.4658 -0.00218046 10.5313 0.00458826 11.5972C0.00458826 12.1673 0.333392 12.4938 0.902745 12.4969C1.96804 12.5036 3.03359 12.5036 4.0994 12.4969C4.66797 12.4969 4.99599 12.1665 4.9999 11.5987C5.00667 10.5334 5.00667 9.46788 4.9999 8.40206C4.9999 7.83427 4.66875 7.50859 4.10174 7.50078C3.5691 7.49454 3.03645 7.50078 2.50303 7.50078Z" fill="white"  />
<path d="M2.49853 0.00273657C1.96589 0.00273657 1.43246 -0.00351143 0.899813 0.00273657C0.335146 0.0113277 0.00868884 0.338572 0.00556482 0.907925C-0.0012039 1.97322 -0.0012039 3.03877 0.00556482 4.10458C0.00946985 4.67003 0.339055 4.99571 0.909189 4.99883C1.97552 5.0056 3.04107 5.0056 4.10585 4.99883C4.67129 4.99492 4.99775 4.66456 5.00088 4.09521C5.00765 3.02888 5.00765 1.96332 5.00088 0.898548C4.99697 0.333881 4.66583 0.0105467 4.09647 0.00273657C3.56383 -0.00351143 3.03118 0.00273657 2.49853 0.00273657Z" fill="white"  />
</g>
<defs>
<clipPath id="clip0_1919_448">
<rect width="20" height="20" fill="white" transform="matrix(1 0 0 -1 0 20)"/>
</clipPath>
</defs>
</svg>
