<svg width="16" height="16" viewBox="0 0 16 16" fill="none" xmlns="http://www.w3.org/2000/svg">
<g clip-path="url(#clip0_1729_326)">
<path d="M2.66563 15.9881C2.21648 15.9881 1.80465 16.0228 1.39949 15.9815C0.580494 15.8975 6.90629e-05 15.2068 6.90629e-05 14.3461C-0.00392927 11.5698 -0.00392927 8.793 6.90629e-05 6.01576C6.90629e-05 4.58317 6.90629e-05 3.15037 6.90629e-05 1.71734C6.90629e-05 0.676207 0.666458 0.00609782 1.70336 0.00343337C2.72293 0.000102815 3.74251 0.00343337 4.7994 0.00343337V0.385781C4.7994 1.64073 4.7994 2.89569 4.7994 4.15064C4.7994 4.90468 5.22523 5.33233 5.97358 5.33366C7.32813 5.33632 8.68312 5.33632 10.0386 5.33366C10.7636 5.33366 11.1927 4.89802 11.1947 4.1673C11.1947 2.91167 11.1947 1.65672 11.1947 0.401769V0.00942813C11.5946 0.00942813 11.9691 -0.00789117 12.3409 0.0194194C12.4675 0.028745 12.6075 0.130661 12.7048 0.226581C13.731 1.2424 14.7566 2.25955 15.7642 3.29069C15.9009 3.44497 15.9791 3.64224 15.9854 3.84823C15.9987 7.34665 16.0014 10.8453 15.9934 14.3441C15.9934 15.316 15.3064 15.9868 14.3274 15.9954C14.0069 15.9954 13.687 15.9954 13.3278 15.9954V15.6158C13.3278 14.1827 13.3278 12.7499 13.3278 11.3173C13.3278 10.2562 12.6615 9.59877 11.5952 9.5981C9.19624 9.5981 6.79724 9.5981 4.39824 9.5981C3.33201 9.5981 2.66563 10.2582 2.66563 11.318C2.66563 12.8627 2.66563 14.4054 2.66563 15.9881Z" fill="#808AAB"/>
<path d="M12.2658 15.9843H3.75206C3.74539 15.8844 3.7334 15.7891 3.7334 15.6932C3.7334 14.2504 3.7334 12.8072 3.7334 11.3635C3.7334 10.8399 3.90866 10.6647 4.43044 10.6641H11.5608C12.0879 10.6641 12.2678 10.8392 12.2685 11.3535C12.2665 12.8855 12.2658 14.4163 12.2658 15.9843Z" fill="#808AAB"/>
<path d="M5.89062 0.015625H10.1155V4.24077H5.89062V0.015625Z" fill="#808AAB"/>
</g>
<defs>
<clipPath id="clip0_1729_326">
<rect width="16" height="16" fill="white"/>
</clipPath>
</defs>
</svg>
