<svg width="18" height="20" viewBox="0 0 18 20" fill="none" xmlns="http://www.w3.org/2000/svg">
<g clip-path="url(#clip0_1919_471)">
<path d="M9.00624 20.0004C5.20789 19.8774 2.26299 18.2824 0.161291 15.1655C-0.0376235 14.8704 -0.0514664 14.6101 0.113744 14.2975C1.14458 12.3474 2.74342 11.1595 4.93585 10.7946C5.20203 10.7503 5.54719 10.8397 5.78041 10.9855C7.93402 12.3301 10.0666 12.3307 12.2208 10.9869C12.4549 10.8409 12.8013 10.75 13.0677 10.7949C15.2743 11.1666 16.8774 12.3708 17.9082 14.3349C18.0447 14.595 18.028 14.8095 17.8649 15.0579C15.7751 18.2426 12.8062 19.8658 9.00624 20.0004Z" fill="white"  />
<path d="M14.2364 5.18507C14.2389 8.03561 11.8806 10.3764 9.00456 10.378C6.12721 10.3797 3.77108 8.04575 3.76807 5.19088C3.76491 2.3387 6.11969 0.00178914 8.99869 1.02723e-06C11.8774 -0.00178708 14.234 2.3311 14.2364 5.18507Z" fill="white"  />
</g>
<defs>
<clipPath id="clip0_1919_471">
<rect width="18" height="20" fill="white"/>
</clipPath>
</defs>
</svg>
